<svg width="414" height="371" viewBox="0 0 414 371" fill="none" xmlns="http://www.w3.org/2000/svg">
<g clip-path="url(#clip0_1777_55091)">
<g clip-path="url(#clip1_1777_55091)">
<rect y="240" width="414" height="131" fill="url(#paint0_linear_1777_55091)"/>
<g clip-path="url(#clip2_1777_55091)">
<rect width="510.796" height="1090.62" rx="80.531" transform="matrix(0.83205 -0.5547 0.830139 0.557556 -218.865 257.625)" fill="#1C1C1C"/>
<rect x="14.9597" y="0.0257041" width="443.327" height="321.381" rx="85.3363" transform="matrix(0.83205 -0.5547 0.830139 0.557556 -175.262 266.645)" fill="#1C1C1C" stroke="black" stroke-width="18"/>
<path d="M118.939 89.9371C167.047 57.865 244.956 57.9989 292.954 90.2361C340.951 122.473 340.862 174.606 292.754 206.679C282.696 213.384 270.259 221.036 261.164 228.378C252.068 235.72 250.133 248.512 254.893 260.676C259.653 272.841 276.335 301.98 239.482 326.549L158.118 380.792C128.249 400.704 77.964 400.618 48.1633 380.603C35.6194 372.178 29.0649 366.494 23.8287 353.37C18.5926 340.245 -17.7017 317.79 -29.6474 314.25C-41.593 310.711 -61.6704 310.037 -77.4226 296.254C-108.542 275.353 -108.484 241.552 -77.2929 220.758C-76.6522 220.331 -76.0025 219.913 -75.3458 219.504L-75.3784 219.482L118.939 89.9371Z" fill="black"/>
<path d="M106.287 230.376C115.78 224.047 115.798 213.76 106.326 207.399C96.8553 201.038 81.4818 201.011 71.9888 207.34C62.4959 213.668 62.4782 223.956 71.9494 230.317C81.4205 236.678 96.794 236.704 106.287 230.376Z" fill="#1C1C1C"/>
<path d="M97.4296 224.424C102.02 221.364 102.028 216.39 97.4487 213.314C92.8694 210.239 85.4363 210.226 80.8464 213.286C76.2565 216.346 76.2479 221.32 80.8273 224.395C85.4066 227.471 92.8398 227.484 97.4296 224.424Z" fill="black"/>
<path d="M52.3622 194.156C58.3344 190.175 58.3456 183.703 52.387 179.701C46.4285 175.699 36.7567 175.682 30.7844 179.664C24.8122 183.645 24.801 190.117 30.7596 194.119C36.7181 198.121 46.3899 198.138 52.3622 194.156Z" fill="#1C1C1C"/>
<rect width="197.876" height="105.841" rx="52.9204" transform="matrix(0.83205 -0.5547 0.830139 0.557556 16.2012 339.922)" fill="#1C1C1C"/>
<rect width="106.991" height="106.991" rx="52.9204" transform="matrix(0.83205 -0.5547 0.830139 0.557556 -106.042 257.818)" fill="#1C1C1C"/>
<rect width="186.372" height="186.372" rx="93.1858" transform="matrix(0.83205 -0.5547 0.830139 0.557556 49.9966 147.402)" fill="#1C1C1C"/>
<rect width="24.1593" height="24.1593" rx="1.15044" transform="matrix(0.83205 -0.5547 0.830139 0.557556 340.292 155.814)" fill="black"/>
<rect width="103.54" height="23.0089" rx="11.5044" transform="matrix(0.83205 -0.5547 0.830139 0.557556 290.747 260.42)" fill="#1C1C1C"/>
</g>
<rect y="240" width="414" height="131" fill="url(#paint1_linear_1777_55091)"/>
<g clip-path="url(#clip3_1777_55091)">
<rect width="189.996" height="189.996" rx="94.9979" transform="matrix(0.83205 -0.5547 0.830139 0.557556 49 147.391)" fill="black"/>
<path d="M122.755 113.211L113.663 119.271L122.73 125.361L131.821 119.3L122.755 113.211Z" fill="#1C1C1C"/>
<path d="M133.318 106.168L124.227 112.229L133.295 118.319L142.386 112.258L133.318 106.168Z" fill="#1C1C1C"/>
<path d="M143.882 99.1246L134.791 105.186L143.857 111.275L152.949 105.214L143.882 99.1246Z" fill="#1C1C1C"/>
<path d="M154.445 92.0836L145.354 98.1445L154.48 104.274L163.571 98.2128L154.445 92.0836Z" fill="#1C1C1C"/>
<path d="M165.009 85.0406L155.917 91.1016L164.984 97.1913L174.076 91.1303L165.009 85.0406Z" fill="#1C1C1C"/>
<path d="M112.167 134.375L103.075 140.436L112.201 146.565L121.293 140.504L112.167 134.375Z" fill="#1C1C1C"/>
<path d="M122.731 127.332L113.639 133.393L122.707 139.483L131.798 133.422L122.731 127.332Z" fill="#1C1C1C"/>
<path d="M133.294 120.289L124.202 126.35L133.269 132.439L142.361 126.378L133.294 120.289Z" fill="#1C1C1C"/>
<path d="M143.857 113.248L134.766 119.309L143.834 125.399L152.925 119.338L143.857 113.248Z" fill="#1C1C1C"/>
<path d="M154.422 106.205L145.33 112.266L154.397 118.355L163.489 112.294L154.422 106.205Z" fill="#1C1C1C"/>
<path d="M164.985 99.1617L155.893 105.223L165.019 111.352L174.111 105.291L164.985 99.1617Z" fill="#1C1C1C"/>
<path d="M175.548 92.1187L166.457 98.1797L175.524 104.269L184.615 98.2085L175.548 92.1187Z" fill="#1C1C1C"/>
<path d="M186.112 85.0777L177.021 91.1387L186.089 97.2293L195.18 91.1683L186.112 85.0777Z" fill="#1C1C1C"/>
<path d="M196.675 78.0347L187.584 84.0957L196.651 90.1855L205.742 84.1245L196.675 78.0347Z" fill="#1C1C1C"/>
<path d="M112.143 148.496L103.051 154.557L112.119 160.647L121.21 154.586L112.143 148.496Z" fill="#1C1C1C"/>
<path d="M122.706 141.453L113.615 147.514L122.741 153.643L131.832 147.582L122.706 141.453Z" fill="#1C1C1C"/>
<path d="M133.27 134.41L124.179 140.471L133.246 146.561L142.338 140.5L133.27 134.41Z" fill="#1C1C1C"/>
<path d="M143.834 127.369L134.742 133.43L143.809 139.519L152.901 133.458L143.834 127.369Z" fill="#1C1C1C"/>
<path d="M154.397 120.326L145.305 126.387L154.373 132.477L163.465 126.416L154.397 120.326Z" fill="#1C1C1C"/>
<path d="M164.961 113.283L155.87 119.344L164.937 125.434L174.028 119.373L164.961 113.283Z" fill="#1C1C1C"/>
<path d="M175.525 106.242L166.433 112.303L175.559 118.432L184.651 112.371L175.525 106.242Z" fill="#1C1C1C"/>
<path d="M186.088 99.1988L176.997 105.26L186.064 111.35L195.155 105.289L186.088 99.1988Z" fill="#1C1C1C"/>
<path d="M196.652 92.1558L187.56 98.2168L196.628 104.307L205.72 98.2465L196.652 92.1558Z" fill="#1C1C1C"/>
<path d="M207.215 85.1129L198.124 91.1738L207.191 97.2636L216.282 91.2026L207.215 85.1129Z" fill="#1C1C1C"/>
<path d="M217.779 78.0718L208.688 84.1328L217.755 90.2226L226.846 84.1616L217.779 78.0718Z" fill="#1C1C1C"/>
<path d="M122.682 155.574L113.59 161.635L122.658 167.725L131.749 161.664L122.682 155.574Z" fill="#1C1C1C"/>
<path d="M133.246 148.531L124.154 154.592L133.28 160.721L142.371 154.66L133.246 148.531Z" fill="#1C1C1C"/>
<path d="M143.809 141.49L134.718 147.551L143.785 153.641L152.877 147.58L143.809 141.49Z" fill="#1C1C1C"/>
<path d="M154.373 134.447L145.281 140.508L154.348 146.597L163.439 140.536L154.373 134.447Z" fill="#1C1C1C"/>
<path d="M164.936 127.404L155.845 133.465L164.913 139.555L174.004 133.494L164.936 127.404Z" fill="#1C1C1C"/>
<path d="M175.5 120.361L166.409 126.422L175.475 132.511L184.567 126.451L175.5 120.361Z" fill="#1C1C1C"/>
<path d="M186.064 113.32L176.972 119.381L186.098 125.51L195.189 119.449L186.064 113.32Z" fill="#1C1C1C"/>
<path d="M196.627 106.277L187.536 112.338L196.602 118.428L205.694 112.367L196.627 106.277Z" fill="#1C1C1C"/>
<path d="M207.191 99.2339L198.099 105.295L207.167 111.385L216.259 105.324L207.191 99.2339Z" fill="#1C1C1C"/>
<path d="M217.755 92.1929L208.663 98.2539L217.73 104.344L226.821 98.2825L217.755 92.1929Z" fill="#1C1C1C"/>
<path d="M228.319 85.15L219.227 91.2109L228.294 97.3006L237.385 91.2396L228.319 85.15Z" fill="#1C1C1C"/>
<path d="M122.657 169.695L113.566 175.756L122.633 181.846L131.725 175.785L122.657 169.695Z" fill="#1C1C1C"/>
<path d="M133.221 162.652L124.129 168.713L133.197 174.803L142.288 168.742L133.221 162.652Z" fill="#1C1C1C"/>
<path d="M143.785 155.611L134.693 161.672L143.819 167.801L152.911 161.74L143.785 155.611Z" fill="#1C1C1C"/>
<path d="M154.349 148.568L145.257 154.629L154.325 160.719L163.416 154.658L154.349 148.568Z" fill="#1C1C1C"/>
<path d="M164.912 141.525L155.82 147.586L164.887 153.676L173.979 147.615L164.912 141.525Z" fill="#1C1C1C"/>
<path d="M175.475 134.484L166.384 140.545L175.452 146.635L184.543 140.574L175.475 134.484Z" fill="#1C1C1C"/>
<path d="M186.04 127.441L176.948 133.502L186.015 139.592L195.106 133.531L186.04 127.441Z" fill="#1C1C1C"/>
<path d="M196.603 120.398L187.511 126.459L196.637 132.588L205.728 126.527L196.603 120.398Z" fill="#1C1C1C"/>
<path d="M207.166 113.355L198.075 119.416L207.141 125.506L216.233 119.445L207.166 113.355Z" fill="#1C1C1C"/>
<path d="M217.73 106.314L208.639 112.375L217.707 118.465L226.798 112.404L217.73 106.314Z" fill="#1C1C1C"/>
<path d="M228.294 99.2711L219.203 105.332L228.269 111.422L237.361 105.361L228.294 99.2711Z" fill="#1C1C1C"/>
<path d="M238.858 92.2281L229.766 98.2891L238.833 104.379L247.924 98.3177L238.858 92.2281Z" fill="#1C1C1C"/>
<path d="M249.421 85.1851L240.33 91.2461L249.455 97.3753L258.547 91.3143L249.421 85.1851Z" fill="#1C1C1C"/>
<path d="M133.196 176.773L124.105 182.834L133.172 188.924L142.264 182.863L133.196 176.773Z" fill="#1C1C1C"/>
<path d="M143.76 169.732L134.669 175.793L143.736 181.883L152.828 175.822L143.76 169.732Z" fill="#1C1C1C"/>
<path d="M154.324 162.689L145.232 168.75L154.358 174.879L163.45 168.818L154.324 162.689Z" fill="#1C1C1C"/>
<path d="M164.888 155.646L155.796 161.707L164.864 167.797L173.955 161.736L164.888 155.646Z" fill="#1C1C1C"/>
<path d="M175.451 148.603L166.36 154.664L175.427 160.754L184.518 154.693L175.451 148.603Z" fill="#1C1C1C"/>
<path d="M186.015 141.562L176.923 147.623L185.991 153.714L195.083 147.653L186.015 141.562Z" fill="#1C1C1C"/>
<path d="M196.579 134.519L187.487 140.58L196.554 146.67L205.646 140.609L196.579 134.519Z" fill="#1C1C1C"/>
<path d="M207.142 127.476L198.051 133.537L207.176 139.666L216.268 133.605L207.142 127.476Z" fill="#1C1C1C"/>
<path d="M217.706 120.435L208.614 126.496L217.681 132.586L226.772 126.525L217.706 120.435Z" fill="#1C1C1C"/>
<path d="M228.269 113.392L219.178 119.453L228.246 125.544L237.337 119.483L228.269 113.392Z" fill="#1C1C1C"/>
<path d="M238.833 106.349L229.742 112.41L238.808 118.5L247.9 112.439L238.833 106.349Z" fill="#1C1C1C"/>
<path d="M249.397 99.3062L240.306 105.367L249.372 111.457L258.464 105.396L249.397 99.3062Z" fill="#1C1C1C"/>
<path d="M259.96 92.2652L250.869 98.3262L259.994 104.455L269.086 98.3944L259.96 92.2652Z" fill="#1C1C1C"/>
<path d="M143.736 183.853L134.645 189.914L143.712 196.004L152.804 189.943L143.736 183.853Z" fill="#1C1C1C"/>
<path d="M154.3 176.81L145.208 182.871L154.276 188.961L163.367 182.9L154.3 176.81Z" fill="#1C1C1C"/>
<path d="M164.864 169.767L155.772 175.828L164.898 181.957L173.99 175.896L164.864 169.767Z" fill="#1C1C1C"/>
<path d="M175.428 162.724L166.336 168.785L175.404 174.875L184.495 168.814L175.428 162.724Z" fill="#1C1C1C"/>
<path d="M185.991 155.683L176.899 161.744L185.966 167.834L195.058 161.773L185.991 155.683Z" fill="#1C1C1C"/>
<path d="M196.554 148.64L187.463 154.701L196.531 160.792L205.622 154.731L196.554 148.64Z" fill="#1C1C1C"/>
<path d="M207.119 141.597L198.027 147.658L207.094 153.748L216.186 147.687L207.119 141.597Z" fill="#1C1C1C"/>
<path d="M217.682 134.556L208.59 140.617L217.716 146.746L226.808 140.685L217.682 134.556Z" fill="#1C1C1C"/>
<path d="M228.245 127.513L219.154 133.574L228.221 139.664L237.312 133.603L228.245 127.513Z" fill="#1C1C1C"/>
<path d="M238.809 120.47L229.718 126.531L238.786 132.622L247.877 126.561L238.809 120.47Z" fill="#1C1C1C"/>
<path d="M249.373 113.427L240.281 119.488L249.348 125.578L258.439 119.517L249.373 113.427Z" fill="#1C1C1C"/>
<path d="M259.937 106.386L250.845 112.447L259.912 118.537L269.003 112.476L259.937 106.386Z" fill="#1C1C1C"/>
<path d="M270.5 99.3433L261.409 105.404L270.534 111.534L279.626 105.473L270.5 99.3433Z" fill="#1C1C1C"/>
<path d="M154.276 190.931L145.184 196.992L154.251 203.082L163.343 197.021L154.276 190.931Z" fill="#1C1C1C"/>
<path d="M164.84 183.888L155.748 189.949L164.815 196.039L173.907 189.978L164.84 183.888Z" fill="#1C1C1C"/>
<path d="M175.403 176.845L166.312 182.906L175.437 189.035L184.529 182.974L175.403 176.845Z" fill="#1C1C1C"/>
<path d="M185.967 169.804L176.875 175.865L185.943 181.955L195.034 175.894L185.967 169.804Z" fill="#1C1C1C"/>
<path d="M196.53 162.761L187.439 168.822L196.506 174.912L205.597 168.851L196.53 162.761Z" fill="#1C1C1C"/>
<path d="M207.093 155.718L198.002 161.779L207.07 167.87L216.161 161.809L207.093 155.718Z" fill="#1C1C1C"/>
<path d="M217.658 148.677L208.566 154.738L217.633 160.828L226.725 154.767L217.658 148.677Z" fill="#1C1C1C"/>
<path d="M228.221 141.634L219.13 147.695L228.256 153.825L237.347 147.764L228.221 141.634Z" fill="#1C1C1C"/>
<path d="M238.784 134.591L229.693 140.652L238.76 146.742L247.851 140.681L238.784 134.591Z" fill="#1C1C1C"/>
<path d="M249.348 127.548L240.257 133.609L249.325 139.7L258.416 133.639L249.348 127.548Z" fill="#1C1C1C"/>
<path d="M259.912 120.507L250.821 126.568L259.888 132.658L268.979 126.597L259.912 120.507Z" fill="#1C1C1C"/>
<path d="M270.476 113.464L261.384 119.525L270.451 125.615L279.542 119.554L270.476 113.464Z" fill="#1C1C1C"/>
<path d="M281.039 106.421L271.948 112.482L281.073 118.612L290.165 112.551L281.039 106.421Z" fill="#1C1C1C"/>
<path d="M164.815 198.009L155.723 204.07L164.79 210.16L173.882 204.099L164.815 198.009Z" fill="#1C1C1C"/>
<path d="M175.379 190.966L166.287 197.027L175.354 203.117L184.446 197.056L175.379 190.966Z" fill="#1C1C1C"/>
<path d="M185.943 183.925L176.851 189.986L185.977 196.116L195.068 190.055L185.943 183.925Z" fill="#1C1C1C"/>
<path d="M196.506 176.882L187.415 182.943L196.482 189.033L205.573 182.972L196.506 176.882Z" fill="#1C1C1C"/>
<path d="M207.069 169.839L197.978 175.9L207.045 181.99L216.136 175.929L207.069 169.839Z" fill="#1C1C1C"/>
<path d="M217.633 162.798L208.542 168.859L217.61 174.95L226.701 168.889L217.633 162.798Z" fill="#1C1C1C"/>
<path d="M228.197 155.755L219.105 161.816L228.172 167.906L237.264 161.845L228.197 155.755Z" fill="#1C1C1C"/>
<path d="M238.76 148.712L229.669 154.773L238.795 160.903L247.886 154.842L238.76 148.712Z" fill="#1C1C1C"/>
<path d="M249.324 141.671L240.232 147.732L249.299 153.822L258.391 147.761L249.324 141.671Z" fill="#1C1C1C"/>
<path d="M259.887 134.628L250.796 140.689L259.864 146.78L268.955 140.719L259.887 134.628Z" fill="#1C1C1C"/>
<path d="M270.451 127.586L261.36 133.646L270.427 139.736L279.518 133.675L270.451 127.586Z" fill="#1C1C1C"/>
<path d="M281.015 120.543L271.924 126.604L280.991 132.693L290.082 126.632L281.015 120.543Z" fill="#1C1C1C"/>
<path d="M291.578 113.502L282.487 119.562L291.613 125.692L300.704 119.631L291.578 113.502Z" fill="#1C1C1C"/>
<path d="M185.918 198.046L176.826 204.107L185.893 210.197L194.985 204.136L185.918 198.046Z" fill="#1C1C1C"/>
<path d="M196.482 191.003L187.39 197.064L196.516 203.194L205.607 197.133L196.482 191.003Z" fill="#1C1C1C"/>
<path d="M207.046 183.961L197.954 190.021L207.021 196.111L216.113 190.05L207.046 183.961Z" fill="#1C1C1C"/>
<path d="M217.609 176.919L208.517 182.98L217.584 189.07L226.675 183.009L217.609 176.919Z" fill="#1C1C1C"/>
<path d="M228.172 169.877L219.081 175.938L228.149 182.028L237.24 175.967L228.172 169.877Z" fill="#1C1C1C"/>
<path d="M238.736 162.834L229.645 168.895L238.712 174.984L247.803 168.923L238.736 162.834Z" fill="#1C1C1C"/>
<path d="M249.299 155.791L240.208 161.852L249.334 167.981L258.425 161.92L249.299 155.791Z" fill="#1C1C1C"/>
<path d="M259.863 148.75L250.771 154.811L259.838 160.9L268.93 154.839L259.863 148.75Z" fill="#1C1C1C"/>
<path d="M270.427 141.707L261.335 147.768L270.404 153.858L279.495 147.797L270.427 141.707Z" fill="#1C1C1C"/>
<path d="M280.99 134.664L271.899 140.725L280.966 146.814L290.057 140.753L280.99 134.664Z" fill="#1C1C1C"/>
<path d="M291.554 127.621L282.463 133.682L291.53 139.771L300.621 133.71L291.554 127.621Z" fill="#1C1C1C"/>
<path d="M196.458 205.125L187.366 211.186L196.433 217.276L205.525 211.215L196.458 205.125Z" fill="#1C1C1C"/>
<path d="M207.021 198.082L197.93 204.143L207.055 210.272L216.147 204.211L207.021 198.082Z" fill="#1C1C1C"/>
<path d="M217.585 191.041L208.494 197.102L217.561 203.192L226.652 197.131L217.585 191.041Z" fill="#1C1C1C"/>
<path d="M228.149 183.998L219.057 190.059L228.124 196.148L237.215 190.087L228.149 183.998Z" fill="#1C1C1C"/>
<path d="M238.712 176.955L229.62 183.016L238.688 189.106L247.78 183.045L238.712 176.955Z" fill="#1C1C1C"/>
<path d="M249.276 169.912L240.185 175.973L249.251 182.062L258.343 176.001L249.276 169.912Z" fill="#1C1C1C"/>
<path d="M259.84 162.871L250.748 168.932L259.874 175.061L268.965 169L259.84 162.871Z" fill="#1C1C1C"/>
<path d="M270.403 155.828L261.312 161.889L270.378 167.978L279.47 161.917L270.403 155.828Z" fill="#1C1C1C"/>
<path d="M280.966 148.785L271.875 154.846L280.943 160.936L290.035 154.875L280.966 148.785Z" fill="#1C1C1C"/>
<path d="M291.53 141.744L282.439 147.805L291.506 153.894L300.597 147.833L291.53 141.744Z" fill="#1C1C1C"/>
<path d="M302.094 134.701L293.002 140.762L302.069 146.851L311.161 140.79L302.094 134.701Z" fill="#1C1C1C"/>
<path d="M217.561 205.162L208.469 211.223L217.596 217.353L226.688 211.292L217.561 205.162Z" fill="#1C1C1C"/>
<path d="M228.124 198.119L219.033 204.18L228.101 210.27L237.193 204.21L228.124 198.119Z" fill="#1C1C1C"/>
<path d="M238.688 191.076L229.596 197.137L238.664 203.227L247.756 197.166L238.688 191.076Z" fill="#1C1C1C"/>
<path d="M249.251 184.035L240.16 190.096L249.229 196.187L258.32 190.126L249.251 184.035Z" fill="#1C1C1C"/>
<path d="M259.815 176.992L250.724 183.053L259.792 189.143L268.883 183.082L259.815 176.992Z" fill="#1C1C1C"/>
<path d="M270.379 169.949L261.287 176.01L270.414 182.14L279.506 176.079L270.379 169.949Z" fill="#1C1C1C"/>
<path d="M280.942 162.906L271.851 168.967L280.919 175.057L290.01 168.996L280.942 162.906Z" fill="#1C1C1C"/>
<path d="M291.506 155.865L282.415 161.926L291.484 168.017L300.575 161.956L291.506 155.865Z" fill="#1C1C1C"/>
<path d="M302.069 148.822L292.978 154.883L302.046 160.973L311.138 154.912L302.069 148.822Z" fill="#1C1C1C"/>
<path d="M249.227 198.154L240.136 204.215L249.202 210.304L258.294 204.243L249.227 198.154Z" fill="#1C1C1C"/>
<path d="M259.79 191.113L250.699 197.174L259.767 203.264L268.858 197.203L259.79 191.113Z" fill="#1C1C1C"/>
<path d="M270.355 184.07L261.263 190.131L270.33 196.22L279.421 190.16L270.355 184.07Z" fill="#1C1C1C"/>
<path d="M280.918 177.027L271.827 183.088L280.952 189.217L290.044 183.156L280.918 177.027Z" fill="#1C1C1C"/>
<path d="M291.481 169.986L282.39 176.047L291.456 182.136L300.548 176.076L291.481 169.986Z" fill="#1C1C1C"/>
</g>
</g>
</g>
<defs>
<linearGradient id="paint0_linear_1777_55091" x1="207" y1="240" x2="207" y2="371" gradientUnits="userSpaceOnUse">
<stop stop-color="#F2F2F2" stop-opacity="0"/>
<stop offset="1" stop-color="#F2F2F2"/>
</linearGradient>
<linearGradient id="paint1_linear_1777_55091" x1="207" y1="240" x2="207" y2="371" gradientUnits="userSpaceOnUse">
<stop stop-opacity="0"/>
<stop offset="1"/>
</linearGradient>
<clipPath id="clip0_1777_55091">
<rect width="414" height="371" fill="white"/>
</clipPath>
<clipPath id="clip1_1777_55091">
<rect width="414" height="371" fill="white"/>
</clipPath>
<clipPath id="clip2_1777_55091">
<rect width="520" height="1090.53" fill="white" transform="matrix(0.83205 -0.5547 0.830139 0.557556 -223 260.445)"/>
</clipPath>
<clipPath id="clip3_1777_55091">
<rect width="189.996" height="189.996" rx="94.9979" transform="matrix(0.83205 -0.5547 0.830139 0.557556 49 147.391)" fill="white"/>
</clipPath>
</defs>
</svg>
