<svg width="230" height="490" viewBox="0 0 230 490" fill="none" xmlns="http://www.w3.org/2000/svg" style="overflow: visible">
<g>
<path d="M65.2517 70.5382C65.2517 69.7103 65.9212 69.0312 66.7606 69.0312H71.2764C72.1055 69.0312 72.7852 69.7 72.7852 70.5382V92.4208C72.7852 103.054 66.814 112.797 57.3254 117.615C47.837 122.443 36.4359 121.541 27.8294 115.28C27.4893 115.036 27.2769 114.664 27.2237 114.261C27.1706 113.858 27.2875 113.433 27.5531 113.115L30.4219 109.613C30.9213 108.998 31.8139 108.881 32.462 109.337C38.8053 113.837 47.125 114.42 54.0315 110.855C60.9382 107.289 65.2733 100.179 65.2733 92.4105V70.5274L65.2517 70.5382Z" fill="white"/>
<path d="M23.6864 76.4998V45.6496C23.6864 34.4642 32.5693 25.2845 43.7684 24.9024C54.9674 24.5204 64.4452 33.0846 65.2106 44.2488C65.2635 45.0341 65.9222 45.6496 66.7087 45.6496H71.2348C71.6496 45.6496 72.0424 45.4798 72.3293 45.1827C72.6163 44.8856 72.7652 44.4823 72.7437 44.0684C71.8724 28.776 58.9945 16.9538 43.6728 17.3783C28.351 17.8134 16.1531 30.3359 16.1531 45.6496V76.4998C16.1531 77.3278 16.8224 78.0068 17.6619 78.0068H22.1776C23.0064 78.0068 23.6864 77.338 23.6864 76.4998Z" fill="white"/>
<path d="M21.2528 241.602C21.2528 243.682 19.5634 245.359 17.4915 245.359C15.4195 245.359 13.7301 243.671 13.7301 241.602V190.578C13.7301 189.23 14.4526 187.988 15.6108 187.32C16.7796 186.651 18.214 186.651 19.3722 187.32C20.541 187.988 21.2528 189.23 21.2528 190.578V241.602Z" fill="white"/>
<path d="M211.914 244.822C209.832 244.822 208.153 246.51 208.153 248.579V287.325C208.153 289.405 209.842 291.082 211.914 291.082C213.986 291.082 215.676 289.394 215.676 287.325V248.579C215.676 246.499 213.986 244.822 211.914 244.822Z" fill="white"/>
<path d="M62.7966 131.188C64.0185 130.626 65.4529 130.763 66.5475 131.549C67.6415 132.323 68.2365 133.629 68.1092 134.966C67.9819 136.303 67.1528 137.47 65.9206 138.033C49.0261 145.727 34.1931 157.316 22.6539 171.844C21.8145 172.895 20.4863 173.425 19.1476 173.223C17.8194 173.022 16.6931 172.13 16.1937 170.889C15.6943 169.637 15.9068 168.225 16.7462 167.174C29.0291 151.712 44.8078 139.391 62.7859 131.198L62.7966 131.188Z" fill="white"/>
<path d="M22.6539 317.805C48.7286 350.608 90.3268 367.047 131.808 360.955C133.137 360.764 134.476 361.284 135.304 362.345C136.144 363.396 136.345 364.818 135.857 366.07C135.357 367.322 134.231 368.214 132.903 368.405C88.7543 374.889 44.4997 357.4 16.7462 322.496C15.9068 321.445 15.6943 320.023 16.1937 318.781C16.6931 317.529 17.8087 316.638 19.1476 316.447C20.4757 316.245 21.8145 316.775 22.6539 317.826V317.805Z" fill="white"/>
<path d="M213.198 318.762C213.698 320.015 213.485 321.426 212.646 322.477C200.363 337.939 184.584 350.26 166.606 358.453C165.384 359.015 163.949 358.877 162.855 358.092C161.761 357.307 161.166 356.012 161.293 354.675C161.42 353.338 162.25 352.17 163.482 351.608C180.376 343.914 195.209 332.325 206.748 317.797C207.588 316.746 208.916 316.215 210.255 316.417C211.583 316.619 212.709 317.51 213.209 318.752L213.198 318.762Z" fill="white"/>
<path d="M114.702 455.906C112.619 455.906 110.941 457.593 110.941 459.663V463.632C110.941 465.712 112.63 467.389 114.702 467.389C116.774 467.389 118.463 465.702 118.463 463.632V459.663C118.463 457.583 116.774 455.906 114.702 455.906Z" fill="white"/>
<path d="M193.445 31.2289C194.784 29.6371 197.154 29.4354 198.748 30.762C200.341 32.0885 200.544 34.4657 199.215 36.0576L158.244 84.8215C157.606 85.5857 156.682 86.0629 155.683 86.1482C154.684 86.2329 153.696 85.9252 152.931 85.2776L151.199 83.824C150.891 83.5692 150.7 83.1979 150.668 82.805C150.636 82.4125 150.753 82.0093 151.019 81.712L193.435 31.2183L193.445 31.2289Z" fill="white"/>
<path d="M118.473 400.105H110.939V407.163H118.473V400.105Z" fill="white"/>
<path d="M118.475 396.796C118.475 395.448 117.753 394.207 116.595 393.538C116.01 393.198 115.362 393.039 114.714 393.039C114.066 393.039 113.418 393.209 112.833 393.538C111.664 394.207 110.952 395.448 110.952 396.796V400.096H118.486V396.796H118.475Z" fill="white"/>
<path d="M118.473 407.164H110.939V414.221H118.473V407.164Z" fill="white"/>
<path d="M118.473 435.414H110.939V442.471H118.473V435.414Z" fill="white"/>
<path d="M118.473 445.767V442.467H110.939V445.767C110.939 447.848 112.629 449.524 114.701 449.524C116.773 449.524 118.462 447.837 118.462 445.767H118.473Z" fill="white"/>
<path d="M118.473 428.348H110.939V435.405H118.473V428.348Z" fill="white"/>
<path d="M118.473 421.283H110.939V428.34H118.473V421.283Z" fill="white"/>
<path d="M118.473 420.648V414.217H110.939V420.648V421.285H118.473V420.648Z" fill="white"/>
<path d="M127.569 120.599L126.846 128.08C129.566 128.367 132.265 128.738 134.953 129.205L136.154 121.776C133.317 121.278 130.448 120.885 127.569 120.588V120.599Z" fill="white"/>
<path d="M136.155 121.785L134.955 129.214C137.643 129.681 140.31 130.243 142.956 130.891L144.624 123.557C141.829 122.867 139.003 122.284 136.145 121.785H136.155Z" fill="white"/>
<path d="M144.623 123.559L142.955 130.892C145.601 131.55 148.225 132.282 150.807 133.12L152.943 125.915C150.202 125.034 147.418 124.259 144.623 123.569V123.559Z" fill="white"/>
<path d="M118.921 120.002L118.687 127.515C121.418 127.611 124.149 127.792 126.848 128.078L127.57 120.596C124.701 120.299 121.822 120.097 118.921 120.002Z" fill="white"/>
<path d="M101.6 120.621L102.334 128.103C105.064 127.816 107.784 127.625 110.494 127.529L110.25 120.016C107.37 120.122 104.49 120.324 101.6 120.621Z" fill="white"/>
<path d="M96.5014 121.256C95.1732 121.447 94.0469 122.339 93.5473 123.591C93.0478 124.843 93.2603 126.255 94.0997 127.316C94.9391 128.367 96.2673 128.897 97.5959 128.706C99.1787 128.473 100.762 128.282 102.335 128.123L101.601 120.641C99.9016 120.821 98.2012 121.023 96.4906 121.278L96.5014 121.256Z" fill="white"/>
<path d="M110.252 120.013L110.496 127.526C113.238 127.431 115.957 127.431 118.677 127.526L118.911 120.013C116.032 119.918 113.142 119.918 110.241 120.013H110.252Z" fill="white"/>
<path d="M152.952 125.899L150.816 133.105C153.409 133.943 155.959 134.867 158.477 135.885L161.08 128.818C158.403 127.746 155.693 126.77 152.952 125.889V125.899Z" fill="white"/>
<path d="M197.463 151.2L192.756 157.079C194.754 158.851 196.698 160.698 198.579 162.608L203.647 157.037C201.649 155.01 199.577 153.068 197.452 151.189L197.463 151.2Z" fill="white"/>
<path d="M203.659 157.049L198.59 162.62C200.45 164.52 202.256 166.483 203.999 168.51L209.418 163.278C207.558 161.124 205.635 159.055 203.659 157.049Z" fill="white"/>
<path d="M190.867 145.779L186.553 151.945C188.677 153.579 190.75 155.288 192.758 157.081L197.465 151.202C195.319 149.313 193.119 147.509 190.867 145.779Z" fill="white"/>
<path d="M209.417 163.279L203.998 168.511C204.933 169.604 205.857 170.708 206.76 171.844C208.057 173.467 210.426 173.743 212.052 172.448C213.677 171.154 213.954 168.787 212.658 167.163C211.606 165.837 210.522 164.553 209.417 163.279Z" fill="white"/>
<path d="M176.584 136.305L173.098 142.98C175.436 144.317 177.742 145.739 179.984 147.246L183.894 140.815C181.503 139.234 179.07 137.727 176.584 136.315V136.305Z" fill="white"/>
<path d="M183.893 140.807L179.983 147.237C182.225 148.734 184.414 150.305 186.55 151.949L190.864 145.784C188.59 144.043 186.273 142.388 183.893 140.807Z" fill="white"/>
<path d="M168.966 132.304L165.916 139.181C168.349 140.358 170.751 141.621 173.099 142.969L176.584 136.294C174.087 134.872 171.548 133.535 168.966 132.293V132.304Z" fill="white"/>
<path d="M161.071 128.828L158.467 135.896C160.986 136.904 163.462 138.008 165.905 139.186L168.955 132.309C166.362 131.068 163.738 129.9 161.06 128.839L161.071 128.828Z" fill="white"/>
</g>
</svg>
